# xmcd CD database file
#
# Track frame offsets:
#	150
#	28465
#	64965
#	104000
#	128820
#	154115
#	184590
#	201960
#	227685
#	248317
#	276340
#	314107
#
# Disc length: 4704 seconds
#
# Revision: 7
# Processed by: cddbd v1.5.2PL0 Copyright (c) Steve Scherf et al.
# Submitted via: CDex 1.79
#
DISCID=b2125e0c
DTITLE=Grace Jones - Private Life The Compass Point Session - Disc 1
DYEAR=1998
DGENRE=Dance
TTITLE0=Private Life [Long Version]
TTITLE1=Private Life [Dub Version]
TTITLE2=Love Is The Drug [Long Version]
TTITLE3=Breakdown
TTITLE4=Warm Leatherette [Long Version]
TTITLE5=The Hunter Gets Captured By The Game [Long Version]
TTITLE6=I've Done It Again
TTITLE7=Pars [Long Version]
TTITLE8=Pull Up To The Bumper
TTITLE9=Use Me [Long Version]
TTITLE10=She's Lost Control [Long Version]
TTITLE11=She's Lost Control [Dub Version]
EXTD=YEAR: 1998
EXTT0=
EXTT1=
EXTT2=
EXTT3=
EXTT4=
EXTT5=
EXTT6=
EXTT7=
EXTT8=
EXTT9=
EXTT10=
EXTT11=
PLAYORDER=
